<svg xmlns="http://www.w3.org/2000/svg" xmlns:xlink="http://www.w3.org/1999/xlink" xmlns:svgjs="http://svgjs.com/svgjs" width="512" height="512" x="0" y="0" viewBox="0 0 512 512" style="enable-background:new 0 0 512 512" xml:space="preserve"><g><path xmlns="http://www.w3.org/2000/svg" d="m118.1 368h117.4l28.5 42.3c1.3 47.7 40.3 85.7 88 85.7h56c4.4 0 8-3.6 8-8v-192c0-6.6-1.6-13-4.7-18.8l-59.3-111.2v-127.9c0-12.2-9.9-22.1-22.1-22.1h-211.8c-12.2 0-22.1 9.9-22.1 22.1v307.8c0 12.2 9.9 22.1 22.1 22.1zm281.9-72v184h-48c-39.2 0-71.1-31.3-72-70.5.4-2.1 0-4.2-1.2-6l-51.9-76.8c-7.4-11-4.4-25.9 6.7-33.3 10.9-7.3 25.7-4.4 33.1 6.4 0 .1.1.1.1.2l46.7 64.6c1.5 2.1 3.9 3.3 6.5 3.3h24c4.4 0 8-3.6 8-8v-159.9l45.2 84.7c1.8 3.5 2.8 7.4 2.8 11.3zm-288-257.9c0-3.4 2.7-6.1 6.1-6.1h211.8c3.4 0 6.1 2.7 6.1 6.1v313.9h-11.9l-11.6-16c4.2-.3 7.5-3.8 7.5-8v-48c0-4.4-3.6-8-8-8s-8 3.6-8 8v44.2l-24.2-33.4c-12.4-18.2-37.2-23-55.5-10.6-.1.1-.3.2-.4.3 0-.1 0-.3 0-.4v-32c0-4.4-3.6-8-8-8s-8 3.6-8 8v32c0 4.3 3.5 7.9 7.8 8-11.1 13.7-12 33-2.2 47.7l11 16.3h-106.4c-3.4 0-6.1-2.7-6.1-6.1z" fill="" data-original="" style=""></path><path xmlns="http://www.w3.org/2000/svg" d="m248 112h32c4.4 0 8-3.6 8-8v-48c0-4.4-3.6-8-8-8h-32c-4.4 0-8 3.6-8 8v48c0 4.4 3.6 8 8 8zm8-48h16v32h-16z" fill="" data-original="" style=""></path><path xmlns="http://www.w3.org/2000/svg" d="m136 80c4.4 0 8-3.6 8-8v-16c0-4.4-3.6-8-8-8s-8 3.6-8 8v16c0 4.4 3.6 8 8 8z" fill="" data-original="" style=""></path><path xmlns="http://www.w3.org/2000/svg" d="m136 192c4.4 0 8-3.6 8-8v-80c0-4.4-3.6-8-8-8s-8 3.6-8 8v80c0 4.4 3.6 8 8 8z" fill="" data-original="" style=""></path><path xmlns="http://www.w3.org/2000/svg" d="m216 96c4.4 0 8-3.6 8-8v-32c0-4.4-3.6-8-8-8s-8 3.6-8 8v32c0 4.4 3.6 8 8 8z" fill="" data-original="" style=""></path><path xmlns="http://www.w3.org/2000/svg" d="m216 160c4.4 0 8-3.6 8-8v-32c0-4.4-3.6-8-8-8s-8 3.6-8 8v32c0 4.4 3.6 8 8 8z" fill="" data-original="" style=""></path><path xmlns="http://www.w3.org/2000/svg" d="m216 224c4.4 0 8-3.6 8-8v-32c0-4.4-3.6-8-8-8s-8 3.6-8 8v32c0 4.4 3.6 8 8 8z" fill="" data-original="" style=""></path><path xmlns="http://www.w3.org/2000/svg" d="m312 112c4.4 0 8-3.6 8-8v-48c0-4.4-3.6-8-8-8s-8 3.6-8 8v48c0 4.4 3.6 8 8 8z" fill="" data-original="" style=""></path><path xmlns="http://www.w3.org/2000/svg" d="m152 336c-13.2 0-24-10.8-24-24v-32c0-13.2 10.8-24 24-24s24 10.8 24 24v32c0 13.2-10.8 24-24 24zm0-64c-4.4 0-8 3.6-8 8v32c0 4.4 3.6 8 8 8s8-3.6 8-8v-32c0-4.4-3.6-8-8-8z" fill="" data-original="" style=""></path></g></svg>