<svg xmlns="http://www.w3.org/2000/svg" xmlns:xlink="http://www.w3.org/1999/xlink" xmlns:svgjs="http://svgjs.com/svgjs" width="512" height="512" x="0" y="0" viewBox="0 0 512.004 512.004" style="enable-background:new 0 0 512 512" xml:space="preserve" class=""><g><g xmlns="http://www.w3.org/2000/svg">	<g>		<path d="M510.193,397.668c-3.21-10.541-10.335-19.202-20.063-24.384l-6.039-3.219c-3.655-1.949-8.198-0.565-10.146,3.091    c-1.948,3.655-0.564,8.197,3.091,10.146l6.04,3.22c6.191,3.299,10.726,8.81,12.768,15.516s1.35,13.808-1.95,19.999l-32.547,61.068    c-6.819,12.777-22.76,17.628-35.533,10.813l-43.185-23.03c0.154-0.343,0.316-0.681,0.46-1.029l5.356-12.864l44.417,23.683    c1.656,0.887,3.466,1.337,5.293,1.337c1.102,0,2.21-0.163,3.294-0.494c2.884-0.878,5.25-2.828,6.653-5.475l32.553-61.05    c1.423-2.658,1.721-5.71,0.839-8.594c-0.877-2.865-2.816-5.224-5.472-6.645l-52.162-27.813l5.789-13.904l19.148,10.208    c1.124,0.6,2.331,0.884,3.522,0.884c2.681,0,5.275-1.442,6.624-3.974c1.949-3.655,0.565-8.198-3.09-10.147l-21.612-11.522    c2.067-15.246-4.881-30.545-18.362-38.946l1.569-2.943c5.907-11.079,1.699-24.899-9.379-30.806l-12.507-6.669    c1.356-1.288,2.501-2.772,3.385-4.428c2.731-5.123,2.739-11.395,0.021-17.207c-2.416-5.167-6.781-9.631-12.288-12.568    c-5.508-2.937-11.644-4.07-17.283-3.2c-6.341,0.982-11.543,4.484-14.275,9.606c-0.883,1.657-1.477,3.435-1.791,5.278    l-15.377-8.199c-11.077-5.907-24.897-1.699-30.805,9.38l-1.831,3.435c-16.689-5.329-35.157,0.862-45.174,15.987l-25.331,38.236    l-4.713-9.193c-1.889-3.686-6.409-5.141-10.095-3.252c-3.686,1.89-5.142,6.41-3.252,10.096l8.558,16.693l-29.833,45.024    l-55.014-180.954l15.392,0.456l46.299,90.308c1.328,2.591,3.955,4.08,6.68,4.08c1.151,0,2.32-0.267,3.415-0.828    c3.686-1.89,5.142-6.41,3.252-10.096l-48.3-94.211c0.625-2.518,1.099-5.58,1.013-8.97c-0.209-8.232-3.71-19.775-19.196-28.016    c-11.888-6.326-33.226-11.409-51.987-7.618c-9.596,1.938-11.936,7.546-12.476,10.716c-1.358,7.968,5.097,16.623,21.582,28.939    c6.898,5.154,13.822,9.616,17.669,12.017L185.452,378.4c-5,17.758,3.107,37.14,19.587,45.925l122.575,65.36    c5.814,3.103,12.265,4.676,18.74,4.676c4.517,0,9.046-0.766,13.378-2.314c5.348-1.911,10.17-4.938,14.188-8.801l44.833,23.909    c6.166,3.29,12.8,4.849,19.346,4.849c14.758-0.001,29.059-7.931,36.482-21.838l32.549-61.071    C512.315,419.367,513.403,408.206,510.193,397.668z M100.577,138.552c14.356-2.709,31.621,1.067,41.397,6.27    c11.528,6.135,12.031,14.343,10.935,19.397l-20.021-0.593C118.26,154.742,104.722,144.156,100.577,138.552z M465.663,411.231    l-29.036,54.453l-42.389-22.601l23.83-57.23L465.663,411.231z M368.359,243.384c0.694-1.302,2.563-1.721,3.334-1.84    c0.477-0.074,0.972-0.11,1.481-0.11c2.065,0,4.343,0.601,6.449,1.724c2.624,1.399,4.724,3.472,5.759,5.686    c0.331,0.707,1.025,2.492,0.331,3.793c0,0.001,0,0.001,0,0.001c-0.694,1.302-2.563,1.721-3.334,1.84    c-2.412,0.377-5.305-0.213-7.93-1.613c-2.624-1.399-4.724-3.472-5.759-5.686C368.359,246.471,367.665,244.685,368.359,243.384z     M369.242,464.092c-0.801,1.924-1.819,3.704-3.021,5.323c-0.072,0.098-0.146,0.193-0.214,0.295    c-2.859,3.736-6.735,6.57-11.32,8.208c-6.664,2.381-13.77,1.859-20.012-1.472l-122.579-65.362    c-10.753-5.731-15.796-18.694-11.729-30.153c0.001-0.003,0.002-0.007,0.003-0.011c0.001-0.002,0.002-0.003,0.002-0.005    c0.668-1.896,1.579-3.718,2.709-5.421l37.156-56.077c0.001-0.001,0.003-0.003,0.004-0.005l32.409-48.922    c7.098-10.717,21.005-14.241,32.347-8.194l20.076,10.705c3.655,1.946,8.198,0.565,10.147-3.09    c1.949-3.654,0.565-8.198-3.089-10.147l-13.265-7.073l1.52-2.851c2.015-3.779,6.732-5.217,10.512-3.2l36.49,19.458    c0.001,0,0.001,0,0.002,0.001c0.001,0,0.002,0.001,0.003,0.001l33.62,17.927c3.78,2.016,5.216,6.732,3.2,10.513l-1.52,2.851    l-42.327-22.57c-3.655-1.95-8.198-0.566-10.147,3.09c-1.949,3.654-0.565,8.198,3.089,10.147l53.129,28.33    c10.551,5.624,15.458,17.697,12.116,28.903c-0.01,0.032-0.018,0.064-0.027,0.096c-0.246,0.813-0.531,1.621-0.865,2.421    l-10.275,24.677c-0.008,0.02-0.017,0.04-0.025,0.06L369.242,464.092z" fill="" data-original="" style=""></path>	</g></g><g xmlns="http://www.w3.org/2000/svg">	<g>		<path d="M147.112,104.093c-0.031-0.254-0.327-2.594-1.127-6.503c-0.831-4.057-4.791-6.665-8.852-5.843    c-4.058,0.833-6.674,4.797-5.843,8.854c0.673,3.288,0.926,5.26,0.934,5.322c0.469,3.798,3.701,6.582,7.434,6.582    c0.303,0,0.61-0.019,0.919-0.057C144.689,111.946,147.614,108.206,147.112,104.093z" fill="" data-original="" style=""></path>	</g></g><g xmlns="http://www.w3.org/2000/svg">	<g>		<path d="M110.293,27.553c-2.469-2.527-5.065-4.943-7.717-7.183c-3.167-2.673-7.898-2.271-10.569,0.894    c-2.672,3.166-2.272,7.898,0.893,10.57c2.287,1.93,4.529,4.017,6.663,6.202c1.469,1.504,3.416,2.259,5.365,2.259    c1.89,0,3.782-0.71,5.241-2.135C113.132,35.265,113.187,30.516,110.293,27.553z" fill="" data-original="" style=""></path>	</g></g><g xmlns="http://www.w3.org/2000/svg">	<g>		<path d="M135.338,64.915c-1.436-3.174-2.984-6.297-4.6-9.282c-1.972-3.644-6.521-4.999-10.165-3.026    c-3.643,1.972-4.997,6.523-3.026,10.165c1.447,2.674,2.835,5.476,4.125,8.329c1.254,2.771,3.982,4.409,6.837,4.409    c1.034,0,2.085-0.215,3.088-0.669C135.371,73.133,137.045,68.689,135.338,64.915z" fill="" data-original="" style=""></path>	</g></g><g xmlns="http://www.w3.org/2000/svg">	<g>		<path d="M72.36,2.494c-1.979-0.763-4.025-1.482-6.079-2.138c-3.944-1.256-8.165,0.92-9.424,4.866    c-1.258,3.946,0.92,8.166,4.867,9.425c1.774,0.565,3.538,1.186,5.243,1.843c0.887,0.342,1.799,0.504,2.696,0.504    c3.01,0.001,5.85-1.825,6.998-4.804C78.151,8.325,76.225,3.984,72.36,2.494z" fill="" data-original="" style=""></path>	</g></g><g xmlns="http://www.w3.org/2000/svg">	<g>		<path d="M90.909,107.05c-0.172-0.221-1.77-2.238-4.712-5.133c-2.954-2.903-7.701-2.866-10.606,0.087    c-2.905,2.953-2.866,7.701,0.087,10.607c2.195,2.159,3.376,3.631,3.43,3.697c1.479,1.88,3.678,2.862,5.899,2.862    c1.616,0.001,3.244-0.518,4.615-1.592C92.885,115.026,93.461,110.313,90.909,107.05z" fill="" data-original="" style=""></path>	</g></g><g xmlns="http://www.w3.org/2000/svg">	<g>		<path d="M57.063,82.882c-3.282-1.305-6.662-2.404-10.046-3.269c-4.013-1.024-8.097,1.397-9.123,5.41    c-1.025,4.013,1.397,8.098,5.41,9.123c2.765,0.706,5.53,1.606,8.219,2.675c0.909,0.361,1.846,0.532,2.768,0.532    c2.983,0,5.804-1.792,6.972-4.733C62.792,88.773,60.912,84.412,57.063,82.882z" fill="" data-original="" style=""></path>	</g></g><g xmlns="http://www.w3.org/2000/svg">	<g>		<path d="M20.769,84.494c-0.706-4.081-4.585-6.807-8.669-6.112c-2.117,0.367-4.267,0.817-6.388,1.339    c-4.022,0.99-6.48,5.053-5.491,9.075c0.842,3.421,3.905,5.71,7.277,5.71c0.593,0,1.196-0.071,1.798-0.219    c1.784-0.439,3.587-0.817,5.362-1.124C18.739,92.456,21.475,88.575,20.769,84.494z" fill="" data-original="" style=""></path>	</g></g><g xmlns="http://www.w3.org/2000/svg">	<g>		<path d="M118.305,103.3c-0.064-0.272-0.666-2.776-2.227-6.732c-1.52-3.853-5.875-5.746-9.728-4.225    c-3.853,1.52-5.745,5.875-4.225,9.729c1.121,2.842,1.559,4.582,1.581,4.669c0.819,3.443,3.893,5.766,7.289,5.766    c0.564,0,1.138-0.064,1.711-0.198C116.74,111.368,119.246,107.333,118.305,103.3z" fill="" data-original="" style=""></path>	</g></g><g xmlns="http://www.w3.org/2000/svg">	<g>		<path d="M58.673,37.899c-3.15-1.567-6.441-3.063-9.783-4.443c-3.826-1.583-8.214,0.238-9.796,4.065    c-1.583,3.828,0.237,8.215,4.065,9.797c3.021,1.25,5.994,2.6,8.834,4.012c1.073,0.534,2.212,0.787,3.334,0.787    c2.757,0,5.41-1.526,6.721-4.162C63.893,44.245,62.382,39.742,58.673,37.899z" fill="" data-original="" style=""></path>	</g></g><g xmlns="http://www.w3.org/2000/svg">	<g>		<path d="M96.304,65.713c-2.431-2.646-5.042-5.231-7.76-7.685c-3.075-2.777-7.816-2.534-10.593,0.54    c-2.776,3.075-2.534,7.819,0.541,10.594c2.373,2.144,4.651,4.399,6.768,6.702c1.479,1.609,3.498,2.425,5.524,2.425    c1.813,0,3.633-0.654,5.073-1.978C98.907,73.507,99.107,68.763,96.304,65.713z" fill="" data-original="" style=""></path>	</g></g><g xmlns="http://www.w3.org/2000/svg">	<g>		<path d="M14.891,23.26c-1.99-0.403-4.044-0.789-6.105-1.147c-4.085-0.704-7.964,2.026-8.672,6.108    c-0.708,4.082,2.026,7.964,6.107,8.672c1.924,0.334,3.839,0.693,5.692,1.068c0.502,0.102,1.003,0.151,1.497,0.151    c3.495,0,6.622-2.456,7.343-6.014C21.575,28.039,18.95,24.082,14.891,23.26z" fill="" data-original="" style=""></path>	</g></g><g xmlns="http://www.w3.org/2000/svg"></g><g xmlns="http://www.w3.org/2000/svg"></g><g xmlns="http://www.w3.org/2000/svg"></g><g xmlns="http://www.w3.org/2000/svg"></g><g xmlns="http://www.w3.org/2000/svg"></g><g xmlns="http://www.w3.org/2000/svg"></g><g xmlns="http://www.w3.org/2000/svg"></g><g xmlns="http://www.w3.org/2000/svg"></g><g xmlns="http://www.w3.org/2000/svg"></g><g xmlns="http://www.w3.org/2000/svg"></g><g xmlns="http://www.w3.org/2000/svg"></g><g xmlns="http://www.w3.org/2000/svg"></g><g xmlns="http://www.w3.org/2000/svg"></g><g xmlns="http://www.w3.org/2000/svg"></g><g xmlns="http://www.w3.org/2000/svg"></g></g></svg>