<svg xmlns="http://www.w3.org/2000/svg" xmlns:xlink="http://www.w3.org/1999/xlink" xmlns:svgjs="http://svgjs.com/svgjs" width="512" height="512" x="0" y="0" viewBox="0 0 64 64" style="enable-background:new 0 0 512 512" xml:space="preserve"><g><g xmlns="http://www.w3.org/2000/svg" id="_12-plant_pot" data-name="12-plant pot"><path d="M42.54,60a3.5,3.5,0,1,0-3.5-3.5A3.5,3.5,0,0,0,42.54,60Zm0-5a1.5,1.5,0,1,1-1.5,1.5A1.5,1.5,0,0,1,42.54,55Z" fill="" data-original="" style=""></path><path d="M63.344,21.049a28.96,28.96,0,0,0-17.574.792,38.013,38.013,0,0,1,8.9-12.058A1,1,0,0,0,53.987,8a28.681,28.681,0,0,0-14.71,6.087A37.1,37.1,0,0,1,44.83,1.615a1,1,0,0,0-.942-1.6C43.6.059,37.057,1.153,32.04,8.471,27.023,1.153,20.483.059,20.192.014a1,1,0,0,0-.942,1.6A37.1,37.1,0,0,1,24.8,14.09,28.682,28.682,0,0,0,10.093,8a1,1,0,0,0-.679,1.779,38.009,38.009,0,0,1,8.9,12.059A28.954,28.954,0,0,0,.736,21.05a1,1,0,0,0,.005,1.907C.89,23,15.108,27.578,18.7,38H13.04a3.017,3.017,0,0,0-3,3v3a3,3,0,0,0,3,3h.111L14.7,60.14A4.375,4.375,0,0,0,19.04,64h26a4.375,4.375,0,0,0,4.344-3.862L50.929,47h.111a3,3,0,0,0,3-3V41a3,3,0,0,0-3-3H45.385C48.972,27.578,63.19,23,63.339,22.957a1,1,0,0,0,.005-1.908ZM43.018,23.06a26.46,26.46,0,0,0-5.489,3.762,21.544,21.544,0,0,1,4.486-7.191,1,1,0,0,0-1.348-1.478c-.155.141-3.4,3.152-5.572,9.452A39.187,39.187,0,0,0,33.2,23.85a31.143,31.143,0,0,1,3.026-4.126,29.744,29.744,0,0,1,2.136-2.243A28.715,28.715,0,0,1,51,10.546,43.583,43.583,0,0,0,43.018,23.06ZM41.654,2.829A42.066,42.066,0,0,0,36.76,16.258c-.27.261-.537.525-.8.8a30.449,30.449,0,0,0-2.766-6.7A19.245,19.245,0,0,1,41.654,2.829Zm-10.47,8a28.943,28.943,0,0,1,3.186,8c-.513.608-1.016,1.239-1.5,1.908a18.766,18.766,0,0,0-2.247-7.523,1,1,0,0,0-1.689,1.072,16.829,16.829,0,0,1,1.84,5.895,32.618,32.618,0,0,0-3.454-3.92,42.027,42.027,0,0,0-4.9-13.432A19.36,19.36,0,0,1,31.184,10.828Zm-5.468,6.653a31.683,31.683,0,0,1,5.466,6.854A38.389,38.389,0,0,1,34.1,30.446a34.232,34.232,0,0,0-2.06,2.831c-.65-1-1.322-1.928-2.009-2.783-2.071-8.048-6.424-12.163-6.61-12.335a1,1,0,1,0-1.359,1.467,23.012,23.012,0,0,1,4.7,7.38,26.526,26.526,0,0,0-5.694-3.945,43.59,43.59,0,0,0-7.989-12.522A28.653,28.653,0,0,1,25.716,17.481ZM4.6,22.307a26.7,26.7,0,0,1,15.248,2.372,25.658,25.658,0,0,1,8.5,6.905,34.277,34.277,0,0,1,2.835,4.089c.438.738.855,1.525,1.26,2.329H27.954a19.186,19.186,0,0,0-4.849-7.718A1,1,0,1,0,21.7,31.7,17.444,17.444,0,0,1,25.841,38H20.78C18.2,29.387,9.445,24.438,4.6,22.307Zm42.8,37.6A2.373,2.373,0,0,1,45.04,62h-26a2.373,2.373,0,0,1-2.357-2.1L15.165,47H48.916ZM52.04,41v3a1,1,0,0,1-1,1h-38a1,1,0,0,1-1-1V41a.974.974,0,0,1,.306-.711A.954.954,0,0,1,13.04,40h38A1,1,0,0,1,52.04,41ZM43.3,38H38.239a17.444,17.444,0,0,1,4.146-6.3,1,1,0,1,0-1.41-1.418A19.186,19.186,0,0,0,36.126,38H34.665q-.694-1.464-1.466-2.812a32.751,32.751,0,0,1,2.809-3.927,25.416,25.416,0,0,1,8.229-6.586A26.655,26.655,0,0,1,59.48,22.308C54.635,24.438,45.88,29.387,43.3,38Z" fill="" data-original="" style=""></path><path d="M16.892,25.831a1,1,0,0,0-.824,1.823,20.389,20.389,0,0,1,3.457,2.156,1,1,0,1,0,1.209-1.594A22.031,22.031,0,0,0,16.892,25.831Z" fill="" data-original="" style=""></path><path d="M47.188,25.831a22.031,22.031,0,0,0-3.842,2.385,1,1,0,0,0,1.209,1.594,20.389,20.389,0,0,1,3.457-2.156,1,1,0,0,0-.824-1.823Z" fill="" data-original="" style=""></path></g></g></svg>