<svg xmlns="http://www.w3.org/2000/svg" xmlns:xlink="http://www.w3.org/1999/xlink" xmlns:svgjs="http://svgjs.com/svgjs" width="512" height="512" x="0" y="0" viewBox="0 0 512 512" style="enable-background:new 0 0 512 512" xml:space="preserve"><g><g xmlns="http://www.w3.org/2000/svg" id="XMLID_1533_"><g id="XMLID_1010_"><path id="XMLID_1403_" d="m379.306 380.037c26.295-26.295 45.083-59.125 54.332-94.941 8.977-34.755 8.826-71.456-.435-106.134-.923-3.458-3.624-6.158-7.081-7.082-48.976-13.077-101.821-7.619-146.919 14.852-16.001-47.778-49.509-89.006-93.386-114.389-3.098-1.792-6.918-1.792-10.016 0-31.068 17.973-57.126 43.818-75.354 74.741-18.785 31.866-28.714 68.365-28.714 105.552s9.929 73.687 28.714 105.552c18.229 30.923 44.286 56.768 75.354 74.741.762.441 1.578.779 2.428 1.006 17.572 4.692 35.746 7.045 53.925 7.045 15.227 0 30.456-1.651 45.336-4.959 5.392-1.199 8.79-6.541 7.592-11.932s-6.544-8.791-11.932-7.591c-23.698 5.269-48.371 5.865-72.289 1.868l95.979-95.979h100.693c-8.527 15.81-19.364 30.502-32.371 43.508-4.927 4.927-10.165 9.621-15.568 13.951-4.311 3.454-5.004 9.747-1.551 14.057 3.455 4.31 9.748 5.002 14.057 1.55 5.974-4.787 11.763-9.973 17.206-15.416zm-140.117-140.115c1.889-1.889 3.837-3.724 5.811-5.533v111.553l-58.29 58.29c-9.943-59.571 9.404-121.235 52.479-164.31zm-58.38-147.264c38.309 23.808 67.229 61.188 80.599 104.079-13.104 8.259-25.314 17.996-36.361 29.043-13.482 13.482-24.975 28.696-34.237 45.139v-106.92c0-5.523-4.478-10-10-10s-10 4.477-10 10v82.858l-65.112-65.112c14.85-36.371 40.908-67.849 75.111-89.087zm-89.076 159.979c0-17.023 2.352-33.749 6.781-49.789l72.295 72.294v45.215c-6.98 26.827-8.495 54.832-4.594 82.18-46.427-35.323-74.482-90.849-74.482-149.9zm225.108 49.75 51.523-51.523c3.905-3.905 3.905-10.237 0-14.143-3.906-3.905-10.236-3.905-14.143 0l-89.221 89.221v-107.513c0-.011-.001-.021-.001-.032 4.29-2.985 8.676-5.806 13.152-8.404 41.122-23.771 90.791-31.029 137.148-20.206 8.874 37.943 5.563 77.272-8.456 112.599h-90.002z" fill="" data-original="" style=""></path><path id="XMLID_1659_" d="m127.106 56.437c1.79 0 3.603-.481 5.238-1.489 4.329-2.668 8.805-5.231 13.304-7.615 4.879-2.586 6.738-8.639 4.152-13.519-2.588-4.879-8.638-6.739-13.52-4.152-4.88 2.586-9.735 5.366-14.433 8.262-4.701 2.898-6.163 9.059-3.265 13.76 1.893 3.065 5.169 4.753 8.524 4.753z" fill="" data-original="" style=""></path><path id="XMLID_1660_" d="m77.561 96.659c2.646 0 5.289-1.044 7.255-3.115 3.505-3.692 7.179-7.321 10.92-10.783 4.053-3.752 4.298-10.079.546-14.132-3.753-4.054-10.08-4.296-14.132-.546-4.056 3.754-8.039 7.688-11.84 11.691-3.802 4.006-3.638 10.335.368 14.138 1.934 1.836 4.411 2.747 6.883 2.747z" fill="" data-original="" style=""></path><path id="XMLID_1661_" d="m185.287 30.315c.95 0 1.917-.136 2.874-.423 4.878-1.461 9.866-2.779 14.826-3.917 5.384-1.235 8.746-6.6 7.512-11.983-1.235-5.383-6.604-8.748-11.982-7.511-5.385 1.235-10.801 2.666-16.096 4.253-5.291 1.585-8.294 7.159-6.709 12.449 1.298 4.333 5.272 7.132 9.575 7.132z" fill="" data-original="" style=""></path><path id="XMLID_1662_" d="m14.581 207.451c.793.193 1.587.285 2.368.285 4.507 0 8.599-3.068 9.71-7.642 1.203-4.953 2.584-9.925 4.105-14.777 1.652-5.27-1.28-10.881-6.55-12.534-5.271-1.65-10.882 1.28-12.534 6.55-1.651 5.267-3.151 10.664-4.457 16.04-1.303 5.367 1.992 10.775 7.358 12.078z" fill="" data-original="" style=""></path><path id="XMLID_1663_" d="m29.197 321.469c-1.412-4.899-2.677-9.901-3.76-14.866-1.179-5.396-6.509-8.818-11.902-7.638-5.396 1.177-8.815 6.506-7.639 11.902 1.177 5.391 2.55 10.821 4.082 16.14 1.263 4.382 5.261 7.234 9.604 7.234.916 0 1.849-.127 2.773-.393 5.308-1.53 8.371-7.072 6.842-12.379z" fill="" data-original="" style=""></path><path id="XMLID_1664_" d="m10.259 271.158c5.521-.113 9.906-4.681 9.793-10.203-.034-1.649-.051-3.303-.052-4.955 0-3.462.075-6.961.224-10.4.239-5.518-4.041-10.184-9.559-10.423-.146-.006-.293-.009-.439-.009-5.323 0-9.751 4.198-9.982 9.568-.162 3.725-.244 7.514-.244 11.269.001 1.791.02 3.577.056 5.359.112 5.452 4.566 9.795 9.994 9.795.069.001.139 0 .209-.001z" fill="" data-original="" style=""></path><path id="XMLID_1665_" d="m481.386 185.799c1.512 4.861 2.883 9.836 4.074 14.788 1.104 4.583 5.199 7.662 9.715 7.662.774 0 1.562-.091 2.348-.28 5.37-1.292 8.675-6.693 7.383-12.063-1.294-5.373-2.781-10.772-4.422-16.046-1.641-5.273-7.246-8.22-12.519-6.579-5.274 1.64-8.22 7.245-6.579 12.518z" fill="" data-original="" style=""></path><path id="XMLID_1666_" d="m463.498 143.473c1.813 3.335 5.248 5.226 8.795 5.226 1.613 0 3.25-.392 4.767-1.216 4.853-2.637 6.648-8.709 4.011-13.562-2.637-4.85-5.467-9.676-8.411-14.344-2.947-4.671-9.119-6.069-13.794-3.122-4.671 2.946-6.068 9.122-3.122 13.793 2.714 4.304 5.323 8.753 7.754 13.225z" fill="" data-original="" style=""></path><path id="XMLID_1667_" d="m46.188 364.163c-2.534-4.908-8.569-6.831-13.474-4.296-4.907 2.534-6.83 8.566-4.296 13.474 2.53 4.899 5.259 9.785 8.11 14.52 1.877 3.117 5.185 4.843 8.576 4.843 1.756 0 3.535-.463 5.148-1.435 4.731-2.849 6.258-8.994 3.408-13.726-2.625-4.363-5.139-8.865-7.472-13.38z" fill="" data-original="" style=""></path><path id="XMLID_1668_" d="m366.799 47.57c4.493 2.394 8.972 4.97 13.311 7.658 1.64 1.016 3.459 1.5 5.256 1.5 3.348 0 6.618-1.681 8.511-4.735 2.908-4.695 1.46-10.859-3.235-13.767-4.706-2.916-9.563-5.71-14.439-8.307-4.871-2.597-10.931-.749-13.527 4.124-2.599 4.874-.752 10.93 4.123 13.527z" fill="" data-original="" style=""></path><path id="XMLID_1669_" d="m248.573 20.114c5.094-.157 10.291-.152 15.354.016.112.003.225.005.337.005 5.37 0 9.81-4.262 9.988-9.669.184-5.52-4.144-10.143-9.663-10.326-5.486-.181-11.114-.187-16.632-.017-5.521.17-9.857 4.783-9.688 10.303.171 5.521 4.792 9.854 10.304 9.688z" fill="" data-original="" style=""></path><path id="XMLID_1671_" d="m309.503 26.088c4.954 1.148 9.941 2.477 14.822 3.95.963.291 1.936.429 2.893.429 4.295 0 8.265-2.79 9.569-7.113 1.596-5.288-1.396-10.867-6.685-12.463-5.296-1.598-10.707-3.04-16.084-4.286-5.377-1.249-10.753 2.104-12 7.484-1.246 5.38 2.105 10.752 7.485 11.999z" fill="" data-original="" style=""></path><path id="XMLID_1673_" d="m258.584 491.986c-.034 0-.069 0-.104 0-5.095.051-10.271-.059-15.348-.332-5.479-.31-10.226 3.933-10.522 9.448-.297 5.515 3.934 10.226 9.448 10.522 4.609.249 9.301.374 13.942.374.896 0 1.791-.004 2.685-.014 5.522-.057 9.953-4.579 9.897-10.102-.057-5.486-4.522-9.896-9.998-9.896z" fill="" data-original="" style=""></path><path id="XMLID_1678_" d="m511.779 245.284c-.227-5.518-4.889-9.805-10.402-9.581-5.519.227-9.808 4.885-9.58 10.403.135 3.281.203 6.609.203 9.894 0 5.108-.165 10.27-.49 15.341-.354 5.512 3.828 10.266 9.34 10.62.218.014.434.021.649.021 5.23 0 9.63-4.067 9.97-9.36.353-5.496.531-11.088.531-16.622 0-3.558-.074-7.163-.221-10.716z" fill="" data-original="" style=""></path><path id="XMLID_1686_" d="m474.489 369.594c-4.792-2.75-10.903-1.094-13.65 3.696-2.538 4.421-5.253 8.815-8.072 13.061-3.055 4.601-1.802 10.807 2.8 13.862 1.701 1.129 3.622 1.67 5.522 1.67 3.237 0 6.415-1.57 8.34-4.47 3.058-4.605 6.004-9.372 8.756-14.168 2.749-4.791 1.094-10.902-3.696-13.651z" fill="" data-original="" style=""></path><path id="XMLID_1692_" d="m496.354 309.598c-5.34-1.415-10.813 1.762-12.23 7.101-1.308 4.926-2.794 9.867-4.418 14.686-1.764 5.233 1.05 10.906 6.283 12.67 1.059.356 2.136.526 3.194.526 4.175 0 8.068-2.635 9.476-6.81 1.763-5.231 3.376-10.595 4.795-15.943 1.417-5.337-1.762-10.813-7.1-12.23z" fill="" data-original="" style=""></path><path id="XMLID_1693_" d="m423.74 422.009c-3.58 3.617-7.329 7.168-11.143 10.553-4.13 3.667-4.506 9.987-.84 14.117 1.977 2.226 4.723 3.361 7.482 3.361 2.36 0 4.73-.831 6.635-2.521 4.134-3.67 8.198-7.52 12.08-11.442 3.885-3.925 3.853-10.257-.073-14.142-3.923-3.884-10.256-3.851-14.141.074z" fill="" data-original="" style=""></path><path id="XMLID_1697_" d="m375.419 459.601c-4.39 2.58-8.918 5.047-13.459 7.333-4.934 2.483-6.919 8.495-4.437 13.428 1.758 3.491 5.282 5.506 8.94 5.506 1.512 0 3.046-.344 4.488-1.07 4.927-2.48 9.84-5.157 14.602-7.956 4.761-2.799 6.353-8.927 3.554-13.688-2.797-4.759-8.923-6.353-13.688-3.553z" fill="" data-original="" style=""></path><path id="XMLID_1701_" d="m140.863 462.059c-4.442-2.488-8.866-5.158-13.146-7.935-4.634-3.006-10.826-1.686-13.832 2.947s-1.687 10.826 2.947 13.832c4.643 3.012 9.44 5.908 14.26 8.606 1.546.866 3.223 1.277 4.877 1.277 3.502 0 6.901-1.843 8.733-5.116 2.699-4.819.981-10.912-3.839-13.611z" fill="" data-original="" style=""></path><path id="XMLID_1702_" d="m53.451 116c-4.664-2.959-10.843-1.576-13.801 3.087-2.96 4.666-5.806 9.495-8.46 14.352-2.647 4.847-.864 10.922 3.982 13.57 1.521.832 3.165 1.226 4.785 1.226 3.539 0 6.969-1.883 8.785-5.208 2.445-4.477 5.068-8.926 7.796-13.226 2.959-4.663 1.577-10.842-3.087-13.801z" fill="" data-original="" style=""></path><path id="XMLID_1705_" d="m81.09 414.44c-3.711-4.092-10.033-4.401-14.126-.692-4.092 3.709-4.401 10.034-.691 14.125 3.712 4.095 7.603 8.119 11.566 11.96 1.942 1.883 4.451 2.82 6.959 2.82 2.611 0 5.22-1.017 7.181-3.04 3.845-3.966 3.746-10.296-.22-14.141-3.655-3.542-7.245-7.255-10.669-11.032z" fill="" data-original="" style=""></path><path id="XMLID_1706_" d="m197.696 484.745c-4.935-1.254-9.892-2.688-14.733-4.262-5.254-1.709-10.896 1.166-12.602 6.418-1.708 5.252 1.166 10.894 6.418 12.602 5.256 1.709 10.636 3.265 15.991 4.626.827.21 1.654.311 2.47.311 4.466 0 8.535-3.014 9.686-7.54 1.359-5.353-1.877-10.795-7.23-12.155z" fill="" data-original="" style=""></path><path id="XMLID_1707_" d="m319.09 483.475c-4.904 1.357-9.92 2.57-14.908 3.604-5.407 1.122-8.882 6.415-7.761 11.822.979 4.723 5.141 7.971 9.781 7.971.674 0 1.356-.068 2.042-.21 5.412-1.123 10.855-2.438 16.18-3.911 5.322-1.473 8.443-6.982 6.971-12.305-1.473-5.323-6.98-8.441-12.305-6.971z" fill="" data-original="" style=""></path><path id="XMLID_1708_" d="m430.273 68.476c-4.043-3.761-10.372-3.533-14.133.514-3.761 4.044-3.531 10.372.514 14.133 3.729 3.467 7.396 7.104 10.897 10.81 1.967 2.081 4.615 3.131 7.27 3.131 2.465 0 4.935-.906 6.867-2.732 4.014-3.794 4.192-10.123.398-14.137-3.796-4.018-7.771-7.96-11.813-11.719z" fill="" data-original="" style=""></path><path id="XMLID_1709_" d="m325.069 419.069c1.86-1.86 2.931-4.44 2.931-7.07s-1.07-5.21-2.931-7.07c-1.859-1.86-4.439-2.93-7.069-2.93s-5.21 1.07-7.07 2.93-2.93 4.44-2.93 7.07 1.069 5.21 2.93 7.07 4.44 2.93 7.07 2.93 5.21-1.07 7.069-2.93z" fill="" data-original="" style=""></path></g></g></g></svg>