<svg xmlns="http://www.w3.org/2000/svg" xmlns:xlink="http://www.w3.org/1999/xlink" xmlns:svgjs="http://svgjs.com/svgjs" width="512" height="512" x="0" y="0" viewBox="0 0 68 68" style="enable-background:new 0 0 512 512" xml:space="preserve"><g><g xmlns="http://www.w3.org/2000/svg"><g><path d="m10.3 29h4.4c.6 0 1-.4 1-1v-7.4c0-.6-.4-1-1-1h-1.5c2.2-9.7 10.7-16.6 20.8-16.6s18.6 6.9 20.8 16.6h-1.5c-.6 0-1 .4-1 1v7.4c0 .6.4 1 1 1h1.7c-1.1 3-4.4 5.8-8.5 6.5 2.7-3.2 4.5-7.5 4.5-12 0-9.2-7.6-16.7-17-16.7s-17 7.5-17 16.7c0 9.6 7.9 18.1 17 18.1 3.7 0 7.3-1.5 10.2-3.9 5.8.1 11.5-3.8 12.8-8.7h.7c1.5 0 2.7-1.2 2.7-2.7v-3.9c0-1.5-1.2-2.7-2.7-2.7h-.8c-2.3-10.9-11.7-18.7-22.9-18.7s-20.6 7.8-22.8 18.6h-.8c-1.5 0-2.7 1.2-2.7 2.7v3.9c-.1 1.6 1.1 2.8 2.6 2.8zm23.7 10.5c-8 0-15-7.5-15-16.1 0-8.1 6.7-14.7 15-14.7s15 6.6 15 14.7c0 4.8-2.2 9.2-5.4 12.2-1.4-.1-2.8-.5-4.1-1.2.1-.3.2-.7.2-1 0-2.1-1.7-3.8-3.8-3.8s-3.9 1.7-3.9 3.8 1.7 3.8 3.8 3.8c1 0 1.9-.4 2.6-1 .9.5 1.9.9 3 1.2-2.3 1.3-4.8 2.1-7.4 2.1zm3.6-6.1c0 1-.8 1.8-1.8 1.8s-1.8-.9-1.8-1.8c0-1 .8-1.8 1.8-1.8s1.8.8 1.8 1.8zm20.8-11v3.9c0 .4-.3.7-.7.7h-3.4v-5.4h3.4c.4 0 .7.4.7.8zm-48.8 0c0-.4.3-.7.7-.7h3.4v5.3h-3.4c-.4 0-.7-.3-.7-.7z" fill="" data-original="" style=""></path></g><g><path d="m39.9 43.2h-11.8c-11.6 0-22.1 9.3-22.1 22.8 0 .6.4 1 1 1h54c.6 0 1-.4 1-1 0-13.4-10.4-22.8-22.1-22.8zm-31.9 21.8c.3-11 9.2-19.8 20.1-19.8h11.8c10.9 0 19.8 8.8 20.1 19.8z" fill="" data-original="" style=""></path></g></g></g></svg>