<svg xmlns="http://www.w3.org/2000/svg" xmlns:xlink="http://www.w3.org/1999/xlink" xmlns:svgjs="http://svgjs.com/svgjs" width="512" height="512" x="0" y="0" viewBox="0 0 88 88" style="enable-background:new 0 0 512 512" xml:space="preserve"><g><g xmlns="http://www.w3.org/2000/svg" id="People-2" data-name="People"><path d="M52,85H34V58.1353l4.36,3.6333a1,1,0,0,0,1.3422-.0567l8.5721-8.451,3.4343,1.0457a1,1,0,0,0,.583-1.914L42,49.2588v-6.55A13.9841,13.9841,0,0,0,46.84,34H47a4.0042,4.0042,0,0,0,4-4V28a3.0033,3.0033,0,0,0-3-3H47V15a14,14,0,0,0-28,0V25H18a3.0033,3.0033,0,0,0-3,3v2a4.0042,4.0042,0,0,0,4,4h.16A13.9841,13.9841,0,0,0,24,42.7084v6.55L9.5083,53.6729A11.9366,11.9366,0,0,0,1,65.15V86a1,1,0,0,0,1,1H52a1,1,0,0,0,0-2ZM46.0979,52.5981l-7.1541,7.0533-4.332-3.61,6.5817-4.9363ZM48,27a1.0009,1.0009,0,0,1,1,1v2a2.0023,2.0023,0,0,1-2,2V27ZM33,3A12.0134,12.0134,0,0,1,45,15v2.2767l-.2944-.1683a23.5947,23.5947,0,0,0-23.4112,0L21,17.2767V15A12.0134,12.0134,0,0,1,33,3ZM44.4891,19.2881,41.7358,22.73a19.4006,19.4006,0,0,0-17.4716,0l-2.7533-3.4414.7757-.4434a21.5962,21.5962,0,0,1,21.4268,0ZM17,30V28a1.0009,1.0009,0,0,1,1-1h1v5A2.0023,2.0023,0,0,1,17,30Zm4,2V21.851l2.2192,2.774a1,1,0,0,0,1.2666.249,17.4323,17.4323,0,0,1,17.0284,0,1,1,0,0,0,1.2666-.249L45,21.851V32a12,12,0,0,1-24,0ZM33,46a13.8964,13.8964,0,0,0,7-1.8942V49.5l-7,5.25L26,49.5V44.1058A13.8964,13.8964,0,0,0,33,46Zm-8.1935,5.1047,6.5817,4.9363-4.332,3.61-7.1537-7.0529ZM3,65.15a9.9446,9.9446,0,0,1,7.0913-9.5635l7.635-2.3255,8.5716,8.45a1,1,0,0,0,1.3422.0567L32,58.1353V85H13V72a1,1,0,0,0-2,0V85H3Z" fill="" data-original="" style=""></path><path d="M26,30a1,1,0,0,0,1-1,1,1,0,0,1,2,0,1,1,0,0,0,2,0,3,3,0,0,0-6,0A1,1,0,0,0,26,30Z" fill="" data-original="" style=""></path><path d="M36,30a1,1,0,0,0,1-1,1,1,0,0,1,2,0,1,1,0,0,0,2,0,3,3,0,0,0-6,0A1,1,0,0,0,36,30Z" fill="" data-original="" style=""></path><path d="M29.9507,34.5391l-.2437-.2461a1,1,0,0,0-1.414,1.414l.2314.2344a5.8941,5.8941,0,0,0,8.9517-.001l.2309-.2334a1,1,0,0,0-1.414-1.414l-.2432.2451a3.9125,3.9125,0,0,1-6.0991.001Z" fill="" data-original="" style=""></path><path d="M18,77h6a1,1,0,0,0,0-2H18a1,1,0,0,0,0,2Z" fill="" data-original="" style=""></path><path d="M86,55H56a1,1,0,0,0-1,1V86a1,1,0,0,0,1,1H86a1,1,0,0,0,1-1V56A1,1,0,0,0,86,55Zm-1,8H76V57h9ZM74,67l-2.4-1.8a1,1,0,0,0-1.2,0L68,67V57h6ZM57,57h9v6H57Zm0,28V65h9v4a1,1,0,0,0,1.6.8L71,67.25l3.4,2.55A1,1,0,0,0,76,69V65h9V85Z" fill="" data-original="" style=""></path><path d="M70,78H60a1,1,0,0,0,0,2H70a1,1,0,0,0,0-2Z" fill="" data-original="" style=""></path><path d="M64,81H60a1,1,0,0,0,0,2h4a1,1,0,0,0,0-2Z" fill="" data-original="" style=""></path></g></g></svg>